<svg xmlns="http://www.w3.org/2000/svg" viewBox="0 0 640 640" width="640" height="640" role="img" aria-label="Whey Protein Supplement">
  <defs>
    <linearGradient id="bg-pproteinsupplementvanilla1kg" x1="0" y1="0" x2="1" y2="1">
      <stop offset="0%" stop-color="#fdf6e6"/>
      <stop offset="100%" stop-color="#f6e6c2"/>
    </linearGradient>
    <radialGradient id="sh-pproteinsupplementvanilla1kg" cx="0.28" cy="0.18" r="0.75">
      <stop offset="0%" stop-color="#ffffff" stop-opacity="0.8"/>
      <stop offset="100%" stop-color="#ffffff" stop-opacity="0"/>
    </radialGradient>
  </defs>
  <rect width="640" height="640" fill="url(#bg-pproteinsupplementvanilla1kg)"/>
  <rect width="640" height="640" fill="url(#sh-pproteinsupplementvanilla1kg)"/>
  <g fill="none" stroke="#d9b978" stroke-width="2" stroke-opacity="0.55">
    <circle cx="564" cy="88" r="44"/>
    <circle cx="564" cy="88" r="28"/>
    <path d="M0 488 Q 160 446 320 490 T 640 478"/>
  </g>
  <g transform="translate(164 112) scale(3.1)" fill="none" stroke="#8f5c1a"
     stroke-width="1.8" stroke-linecap="round" stroke-linejoin="round" color="#8f5c1a">
    <path d="M25 12h14v8l4 6v24a4 4 0 0 1-4 4H25a4 4 0 0 1-4-4V26l4-6z"/><path d="M21 32h22"/><path d="M27 40h10"/>
  </g>
  <g font-family="Georgia, 'Times New Roman', serif" text-anchor="middle" fill="#8f5c1a">
    <text x="320" y="536" font-size="27" font-weight="600">Whey Protein</text>
    <text x="320" y="568" font-size="27" font-weight="600">Supplement</text>
  </g>
  <g>
    <rect x="272" y="582" width="96" height="36" rx="18" fill="#8f5c1a" fill-opacity="0.12"/>
    <text x="320" y="606" font-family="Helvetica, Arial, sans-serif" font-size="16" font-weight="700" letter-spacing="2" text-anchor="middle" fill="#8f5c1a">DP</text>
  </g>
  <title>Whey Protein Supplement</title>
</svg>
